<?xml version="1.0" encoding="UTF-8" standalone="no"?><svg xmlns="http://www.w3.org/2000/svg" xmlns:xlink="http://www.w3.org/1999/xlink" fill="#000000" height="1359.7" preserveAspectRatio="xMidYMid meet" version="1" viewBox="546.4 546.4 1359.7 1359.7" width="1359.7" zoomAndPan="magnify"><g id="change1_1"><path d="M 1573.808594 1377.125 L 894.628906 1549.597656 C 891.957031 1550.265625 889.277344 1550.585938 886.644531 1550.585938 C 872.1875 1550.585938 859.011719 1540.828125 855.289062 1526.175781 C 850.882812 1508.855469 861.359375 1491.238281 878.695312 1486.835938 L 1557.871094 1314.367188 C 1575.261719 1310.007812 1592.824219 1320.476562 1597.222656 1337.785156 C 1601.628906 1355.105469 1591.140625 1372.726562 1573.808594 1377.125 Z M 946.222656 947.707031 C 994.964844 947.707031 1034.492188 987.242188 1034.492188 1035.960938 C 1034.492188 1084.722656 994.964844 1124.238281 946.222656 1124.238281 C 897.472656 1124.238281 857.945312 1084.722656 857.945312 1035.960938 C 857.945312 987.242188 897.472656 947.707031 946.222656 947.707031 Z M 1506.289062 947.707031 C 1555.03125 947.707031 1594.554688 987.242188 1594.554688 1035.960938 C 1594.554688 1084.722656 1555.03125 1124.238281 1506.289062 1124.238281 C 1457.550781 1124.238281 1418.011719 1084.722656 1418.011719 1035.960938 C 1418.011719 987.242188 1457.550781 947.707031 1506.289062 947.707031 Z M 1226.257812 546.410156 C 851.394531 546.410156 546.417969 851.386719 546.417969 1226.242188 C 546.417969 1601.105469 851.394531 1906.078125 1226.257812 1906.078125 C 1601.113281 1906.078125 1906.089844 1601.105469 1906.089844 1226.242188 C 1906.089844 851.386719 1601.113281 546.410156 1226.257812 546.410156" fill="#ca211f"/></g></svg>