<?xml version="1.0" encoding="UTF-8" standalone="no"?><svg xmlns="http://www.w3.org/2000/svg" xmlns:xlink="http://www.w3.org/1999/xlink" fill="#000000" height="1359.7" preserveAspectRatio="xMidYMid meet" version="1" viewBox="546.4 546.4 1359.7 1359.7" width="1359.7" zoomAndPan="magnify"><g id="change1_1"><path d="M 1634.605469 1423.457031 C 1544.820312 1563.496094 1392.171875 1647.097656 1226.257812 1647.097656 C 1060.34375 1647.097656 907.6875 1563.496094 817.902344 1423.457031 C 808.246094 1408.40625 812.632812 1388.386719 827.679688 1378.738281 C 842.75 1369.097656 862.761719 1373.484375 872.402344 1388.515625 C 950.230469 1509.886719 1082.515625 1582.347656 1226.257812 1582.347656 C 1370 1582.347656 1502.277344 1509.886719 1580.101562 1388.515625 C 1589.761719 1373.464844 1609.78125 1369.097656 1624.832031 1378.738281 C 1639.878906 1388.386719 1644.253906 1408.40625 1634.605469 1423.457031 Z M 946.214844 947.707031 C 994.964844 947.707031 1034.484375 987.230469 1034.484375 1035.960938 C 1034.484375 1084.722656 994.964844 1124.246094 946.214844 1124.246094 C 897.464844 1124.246094 857.945312 1084.722656 857.945312 1035.960938 C 857.945312 987.230469 897.464844 947.707031 946.214844 947.707031 Z M 1506.289062 947.707031 C 1555.03125 947.707031 1594.566406 987.230469 1594.566406 1035.960938 C 1594.566406 1084.722656 1555.03125 1124.246094 1506.289062 1124.246094 C 1457.550781 1124.246094 1418 1084.722656 1418 1035.960938 C 1418 987.230469 1457.550781 947.707031 1506.289062 947.707031 Z M 1226.257812 546.410156 C 851.394531 546.410156 546.417969 851.386719 546.417969 1226.242188 C 546.417969 1601.105469 851.394531 1906.078125 1226.257812 1906.078125 C 1601.113281 1906.078125 1906.089844 1601.105469 1906.089844 1226.242188 C 1906.089844 851.386719 1601.113281 546.410156 1226.257812 546.410156" fill="#7ed957"/></g></svg>